<?xml version="1.0" encoding="UTF-8"?>
<svg viewBox="0 0 325 325" xmlns="http://www.w3.org/2000/svg" xmlns:xlink="http://www.w3.org/1999/xlink">
 <defs>
  <filter id="b">
   <feGaussianBlur stdDeviation="1.54313"/>
  </filter>
  <linearGradient id="a">
   <stop stop-color="#fff" offset="0"/>
   <stop stop-color="#fff" stop-opacity="0" offset="1"/>
  </linearGradient>
  <linearGradient id="e" x2="0" y1="456.26" y2="537.36" gradientUnits="userSpaceOnUse">
   <stop stop-color="#0055d4" stop-opacity="0" offset="0"/>
   <stop stop-color="#333" offset="1"/>
  </linearGradient>
  <linearGradient id="c" x2="0" y1="180.35" y2="420.66" gradientUnits="userSpaceOnUse">
   <stop stop-color="#ccc" offset="0"/>
   <stop stop-color="#fff" stop-opacity="0" offset="1"/>
  </linearGradient>
  <linearGradient id="f" x1="256" x2="255" y1="220" y2="337.39" gradientUnits="userSpaceOnUse" xlink:href="#a"/>
  <linearGradient id="d" x1="241" x2="237" y1="180.35" y2="393.37" gradientUnits="userSpaceOnUse" xlink:href="#a"/>
 </defs>
 <g transform="translate(-80.41 -227.18)">
  <path d="m121.22 232.34c-19.58 0-35.594 16.013-35.594 35.594v245.44c0 19.58 16.013 35.594 35.594 35.594h245.44c19.58 0 35.594-16.013 35.594-35.594v-245.44c0-19.58-16.013-35.594-35.594-35.594h-245.44z" fill="#0055d4"/>
  <path transform="matrix(1.2652 0 0 1 -32.798 -9.701)" d="m323 425.86c0 21.815-40.518 39.5-90.5 39.5s-90.5-17.685-90.5-39.5 40.518-39.5 90.5-39.5 90.5 17.685 90.5 39.5z" fill="#fff"/>
  <path transform="matrix(.92265 0 0 1 -10.157 -8.701)" d="m323 425.86c0 21.815-40.518 39.5-90.5 39.5s-90.5-17.685-90.5-39.5 40.518-39.5 90.5-39.5 90.5 17.685 90.5 39.5z" fill="#fff"/>
  <path transform="matrix(.69613 0 0 1 48.009 -54.701)" d="m323 425.86c0 21.815-40.518 39.5-90.5 39.5s-90.5-17.685-90.5-39.5 40.518-39.5 90.5-39.5 90.5 17.685 90.5 39.5z" fill="#fff"/>
  <path transform="matrix(.55249 0 0 .87342 154.41 -31.794)" d="m323 425.86c0 21.815-40.518 39.5-90.5 39.5s-90.5-17.685-90.5-39.5 40.518-39.5 90.5-39.5 90.5 17.685 90.5 39.5z" fill="#fff"/>
  <path transform="matrix(.55249 0 0 .87342 190.41 4.2056)" d="m323 425.86c0 21.815-40.518 39.5-90.5 39.5s-90.5-17.685-90.5-39.5 40.518-39.5 90.5-39.5 90.5 17.685 90.5 39.5z" fill="#fff"/>
  <path transform="matrix(1 0 0 1.2867 -5.0088 -79.708)" d="m126.22 254.38c-11.477 0-20.562 9.0855-20.562 20.562v22.469c37.105 11.192 87.586 18.188 143.28 18.188s106.18-6.9954 143.28-18.188v-22.469c0-11.477-9.0855-20.562-20.562-20.562h-245.44z" fill="url(#f)"/>
  <path transform="matrix(1 0 0 1.0035 0 -1.8559)" d="m121.22 246.59c-11.894 0-21.344 9.4497-21.344 21.344v245.44c0 11.894 9.4497 21.344 21.344 21.344h245.44c11.894 0 21.344-9.4497 21.344-21.344v-245.44c0-11.894-9.4497-21.344-21.344-21.344h-245.44z" fill="url(#e)"/>
  <path d="m121.22 232.34c-19.58 0-35.594 16.013-35.594 35.594v245.44c0 19.58 16.013 35.594 35.594 35.594h245.44c19.58 0 35.594-16.013 35.594-35.594v-245.44c0-19.58-16.013-35.594-35.594-35.594h-245.44zm0 13.156h245.44c12.441 0 22.438 9.9964 22.438 22.438v245.44c0 12.441-9.9964 22.438-22.438 22.438h-245.44c-12.441 0-22.438-9.9964-22.438-22.438v-245.44c0-12.441 9.9964-22.438 22.438-22.438z" fill="#0055d4"/>
  <path transform="translate(-.51183 -1.5355)" d="m121.22 236.34c-17.399 0-31.594 14.194-31.594 31.594v245.44c0 17.399 14.194 31.594 31.594 31.594h245.44c17.399 0 31.594-14.194 31.594-31.594v-245.44c0-17.399-14.194-31.594-31.594-31.594h-245.44zm0 5.1562h245.44c14.584 0 26.438 11.854 26.438 26.438v245.44c0 14.584-11.854 26.438-26.438 26.438h-245.44c-14.584 0-26.438-11.854-26.438-26.438v-245.44c0-14.584 11.854-26.438 26.438-26.438z" fill="url(#d)" filter="url(#b)"/>
  <path transform="matrix(1 0 0 -1 -.51183 783.82)" d="m121.22 236.34c-17.399 0-31.594 14.194-31.594 31.594v245.44c0 17.399 14.194 31.594 31.594 31.594h245.44c17.399 0 31.594-14.194 31.594-31.594v-245.44c0-17.399-14.194-31.594-31.594-31.594h-245.44zm0 5.1562h245.44c14.584 0 26.438 11.854 26.438 26.438v245.44c0 14.584-11.854 26.438-26.438 26.438h-245.44c-14.584 0-26.438-11.854-26.438-26.438v-245.44c0-14.584 11.854-26.438 26.438-26.438z" fill="url(#c)" filter="url(#b)"/>
 </g>
</svg>
